<mxfile host="Electron" agent="Mozilla/5.0 (X11; Linux x86_64) AppleWebKit/537.36 (KHTML, like Gecko) draw.io/26.2.15 Chrome/134.0.6998.205 Electron/35.2.1 Safari/537.36" version="26.2.15">
  <diagram name="Page-1" id="y-7BM3kromw2LYBl97lA">
    <mxGraphModel dx="2515" dy="912" grid="1" gridSize="10" guides="1" tooltips="1" connect="1" arrows="1" fold="1" page="1" pageScale="1" pageWidth="850" pageHeight="1100" math="0" shadow="0">
      <root>
        <mxCell id="0" />
        <mxCell id="1" parent="0" />
        <mxCell id="gGZaB5eez7U0gUSuwv3n-2" value="CU-Modulo Empleado" style="shape=umlFrame;whiteSpace=wrap;html=1;pointerEvents=0;width=230;height=80;" vertex="1" parent="1">
          <mxGeometry x="-530" y="520" width="1130" height="2220" as="geometry" />
        </mxCell>
        <mxCell id="gGZaB5eez7U0gUSuwv3n-3" value="Empleado" style="shape=umlActor;verticalLabelPosition=bottom;verticalAlign=top;html=1;outlineConnect=0;" vertex="1" parent="1">
          <mxGeometry x="-790" y="1500" width="200" height="400" as="geometry" />
        </mxCell>
        <mxCell id="gGZaB5eez7U0gUSuwv3n-4" value="CU01-Iniciar Sesion" style="ellipse;whiteSpace=wrap;html=1;" vertex="1" parent="1">
          <mxGeometry x="-60" y="600" width="120" height="80" as="geometry" />
        </mxCell>
        <mxCell id="gGZaB5eez7U0gUSuwv3n-5" value="CU03-Cerrar Sesion" style="ellipse;whiteSpace=wrap;html=1;" vertex="1" parent="1">
          <mxGeometry x="-60" y="710" width="120" height="80" as="geometry" />
        </mxCell>
        <mxCell id="gGZaB5eez7U0gUSuwv3n-8" value="CU-4-Registrar Experiencia Laboral" style="ellipse;whiteSpace=wrap;html=1;" vertex="1" parent="1">
          <mxGeometry x="-60" y="1100" width="120" height="70" as="geometry" />
        </mxCell>
        <mxCell id="gGZaB5eez7U0gUSuwv3n-11" value="CU-4-Consultar Experiencia Laboral" style="ellipse;whiteSpace=wrap;html=1;" vertex="1" parent="1">
          <mxGeometry x="-60" y="1210" width="120" height="70" as="geometry" />
        </mxCell>
        <mxCell id="gGZaB5eez7U0gUSuwv3n-13" value="CU-4-Consultar Estudios" style="ellipse;whiteSpace=wrap;html=1;" vertex="1" parent="1">
          <mxGeometry x="-70" y="1380" width="120" height="70" as="geometry" />
        </mxCell>
        <mxCell id="gGZaB5eez7U0gUSuwv3n-15" value="CU-5-Consultar sus Notificaciones" style="ellipse;whiteSpace=wrap;html=1;" vertex="1" parent="1">
          <mxGeometry x="-60" y="2620" width="120" height="80" as="geometry" />
        </mxCell>
        <mxCell id="gGZaB5eez7U0gUSuwv3n-16" style="edgeStyle=orthogonalEdgeStyle;rounded=0;orthogonalLoop=1;jettySize=auto;html=1;entryX=1;entryY=0.5;entryDx=0;entryDy=0;" edge="1" parent="1" source="gGZaB5eez7U0gUSuwv3n-18" target="gGZaB5eez7U0gUSuwv3n-4">
          <mxGeometry relative="1" as="geometry" />
        </mxCell>
        <mxCell id="gGZaB5eez7U0gUSuwv3n-17" value="&amp;lt;&amp;lt;Extend&amp;gt;&amp;gt;" style="edgeLabel;html=1;align=center;verticalAlign=middle;resizable=0;points=[];" vertex="1" connectable="0" parent="gGZaB5eez7U0gUSuwv3n-16">
          <mxGeometry x="-0.0037" y="2" relative="1" as="geometry">
            <mxPoint y="-12" as="offset" />
          </mxGeometry>
        </mxCell>
        <mxCell id="gGZaB5eez7U0gUSuwv3n-18" value="CU02-Recuperar Contrase;a" style="ellipse;whiteSpace=wrap;html=1;" vertex="1" parent="1">
          <mxGeometry x="120" y="600" width="120" height="80" as="geometry" />
        </mxCell>
        <mxCell id="gGZaB5eez7U0gUSuwv3n-19" value="CU-4-Editar Hoja de vida" style="ellipse;whiteSpace=wrap;html=1;" vertex="1" parent="1">
          <mxGeometry x="-60" y="1010" width="120" height="60" as="geometry" />
        </mxCell>
        <mxCell id="gGZaB5eez7U0gUSuwv3n-20" value="CU-4-Editar Estudios" style="ellipse;whiteSpace=wrap;html=1;" vertex="1" parent="1">
          <mxGeometry x="-70" y="1490" width="120" height="70" as="geometry" />
        </mxCell>
        <mxCell id="gGZaB5eez7U0gUSuwv3n-21" value="CU-4- Editar Experiencia Laboral" style="ellipse;whiteSpace=wrap;html=1;" vertex="1" parent="1">
          <mxGeometry x="-70" y="1300" width="120" height="70" as="geometry" />
        </mxCell>
        <mxCell id="gGZaB5eez7U0gUSuwv3n-22" value="" style="endArrow=classic;html=1;rounded=0;entryX=0;entryY=0.5;entryDx=0;entryDy=0;" edge="1" parent="1" target="gGZaB5eez7U0gUSuwv3n-4">
          <mxGeometry width="50" height="50" relative="1" as="geometry">
            <mxPoint x="-550" y="1470" as="sourcePoint" />
            <mxPoint x="500" y="1240" as="targetPoint" />
          </mxGeometry>
        </mxCell>
        <mxCell id="gGZaB5eez7U0gUSuwv3n-23" value="" style="endArrow=classic;html=1;rounded=0;entryX=0;entryY=0.5;entryDx=0;entryDy=0;" edge="1" parent="1" target="gGZaB5eez7U0gUSuwv3n-5">
          <mxGeometry width="50" height="50" relative="1" as="geometry">
            <mxPoint x="-540" y="1470" as="sourcePoint" />
            <mxPoint x="500" y="1240" as="targetPoint" />
          </mxGeometry>
        </mxCell>
        <mxCell id="gGZaB5eez7U0gUSuwv3n-33" value="" style="endArrow=classic;html=1;rounded=0;entryX=0;entryY=0.5;entryDx=0;entryDy=0;" edge="1" parent="1" target="gGZaB5eez7U0gUSuwv3n-52">
          <mxGeometry width="50" height="50" relative="1" as="geometry">
            <mxPoint x="-540" y="1580" as="sourcePoint" />
            <mxPoint x="-30" y="1920" as="targetPoint" />
          </mxGeometry>
        </mxCell>
        <mxCell id="gGZaB5eez7U0gUSuwv3n-43" value="CU-4-Consultar Hoja de vida" style="ellipse;whiteSpace=wrap;html=1;" vertex="1" parent="1">
          <mxGeometry x="-60" y="920" width="120" height="70" as="geometry" />
        </mxCell>
        <mxCell id="gGZaB5eez7U0gUSuwv3n-52" value="CU-4-Registrar Hoja de vida" style="ellipse;whiteSpace=wrap;html=1;" vertex="1" parent="1">
          <mxGeometry x="-60" y="810" width="120" height="70" as="geometry" />
        </mxCell>
        <mxCell id="gGZaB5eez7U0gUSuwv3n-61" value="CU-5-Consultar Ausencias" style="ellipse;whiteSpace=wrap;html=1;" vertex="1" parent="1">
          <mxGeometry x="-70" y="1580" width="120" height="80" as="geometry" />
        </mxCell>
        <mxCell id="gGZaB5eez7U0gUSuwv3n-62" value="CU-5-Solicitar Ausencia" style="ellipse;whiteSpace=wrap;html=1;" vertex="1" parent="1">
          <mxGeometry x="-70" y="1680" width="120" height="80" as="geometry" />
        </mxCell>
        <mxCell id="gGZaB5eez7U0gUSuwv3n-65" value="CU-5-Consultar Vacaciones" style="ellipse;whiteSpace=wrap;html=1;" vertex="1" parent="1">
          <mxGeometry x="-70" y="1780" width="120" height="80" as="geometry" />
        </mxCell>
        <mxCell id="gGZaB5eez7U0gUSuwv3n-66" value="CU-5-Solicitar Vacacion" style="ellipse;whiteSpace=wrap;html=1;" vertex="1" parent="1">
          <mxGeometry x="-70" y="1880" width="120" height="80" as="geometry" />
        </mxCell>
        <mxCell id="gGZaB5eez7U0gUSuwv3n-69" value="CU-5-Consultar Paz y Salvos" style="ellipse;whiteSpace=wrap;html=1;" vertex="1" parent="1">
          <mxGeometry x="-70" y="1980" width="120" height="80" as="geometry" />
        </mxCell>
        <mxCell id="gGZaB5eez7U0gUSuwv3n-76" value="CU-5-Consultar Jornadas" style="ellipse;whiteSpace=wrap;html=1;" vertex="1" parent="1">
          <mxGeometry x="-70" y="2090" width="120" height="80" as="geometry" />
        </mxCell>
        <mxCell id="gGZaB5eez7U0gUSuwv3n-79" value="CU-5-Finalizar Jornada" style="ellipse;whiteSpace=wrap;html=1;" vertex="1" parent="1">
          <mxGeometry x="-70" y="2200" width="120" height="80" as="geometry" />
        </mxCell>
        <mxCell id="gGZaB5eez7U0gUSuwv3n-80" value="CU-5-Consultar Horas Extra" style="ellipse;whiteSpace=wrap;html=1;" vertex="1" parent="1">
          <mxGeometry x="-60" y="2300" width="120" height="80" as="geometry" />
        </mxCell>
        <mxCell id="gGZaB5eez7U0gUSuwv3n-81" style="edgeStyle=orthogonalEdgeStyle;rounded=0;orthogonalLoop=1;jettySize=auto;html=1;" edge="1" parent="1" source="gGZaB5eez7U0gUSuwv3n-83" target="gGZaB5eez7U0gUSuwv3n-84">
          <mxGeometry relative="1" as="geometry" />
        </mxCell>
        <mxCell id="gGZaB5eez7U0gUSuwv3n-82" value="Include" style="edgeLabel;html=1;align=center;verticalAlign=middle;resizable=0;points=[];" vertex="1" connectable="0" parent="gGZaB5eez7U0gUSuwv3n-81">
          <mxGeometry x="-0.0904" relative="1" as="geometry">
            <mxPoint as="offset" />
          </mxGeometry>
        </mxCell>
        <mxCell id="gGZaB5eez7U0gUSuwv3n-83" value="CU-5-Consultar Chat Por Administrador O Recursos Humanos" style="ellipse;whiteSpace=wrap;html=1;" vertex="1" parent="1">
          <mxGeometry x="-60" y="2420" width="120" height="80" as="geometry" />
        </mxCell>
        <mxCell id="gGZaB5eez7U0gUSuwv3n-84" value="CU-5-Consultar Mensajes Por Chat" style="ellipse;whiteSpace=wrap;html=1;" vertex="1" parent="1">
          <mxGeometry x="220" y="2420" width="120" height="80" as="geometry" />
        </mxCell>
        <mxCell id="gGZaB5eez7U0gUSuwv3n-85" style="edgeStyle=orthogonalEdgeStyle;rounded=0;orthogonalLoop=1;jettySize=auto;html=1;" edge="1" parent="1" source="gGZaB5eez7U0gUSuwv3n-87" target="gGZaB5eez7U0gUSuwv3n-88">
          <mxGeometry relative="1" as="geometry" />
        </mxCell>
        <mxCell id="gGZaB5eez7U0gUSuwv3n-86" value="Include" style="edgeLabel;html=1;align=center;verticalAlign=middle;resizable=0;points=[];" vertex="1" connectable="0" parent="gGZaB5eez7U0gUSuwv3n-85">
          <mxGeometry x="-0.0904" y="-2" relative="1" as="geometry">
            <mxPoint as="offset" />
          </mxGeometry>
        </mxCell>
        <mxCell id="gGZaB5eez7U0gUSuwv3n-87" value="CU-5-Consultar Certificado" style="ellipse;whiteSpace=wrap;html=1;" vertex="1" parent="1">
          <mxGeometry x="-60" y="2520" width="120" height="80" as="geometry" />
        </mxCell>
        <mxCell id="gGZaB5eez7U0gUSuwv3n-88" value="CU-5-Descargar Certificado" style="ellipse;whiteSpace=wrap;html=1;" vertex="1" parent="1">
          <mxGeometry x="230" y="2520" width="120" height="80" as="geometry" />
        </mxCell>
        <mxCell id="gGZaB5eez7U0gUSuwv3n-91" value="" style="endArrow=classic;html=1;rounded=0;entryX=0;entryY=0.5;entryDx=0;entryDy=0;" edge="1" parent="1" target="gGZaB5eez7U0gUSuwv3n-43">
          <mxGeometry width="50" height="50" relative="1" as="geometry">
            <mxPoint x="-540" y="1590" as="sourcePoint" />
            <mxPoint x="-150" y="1780" as="targetPoint" />
          </mxGeometry>
        </mxCell>
        <mxCell id="gGZaB5eez7U0gUSuwv3n-92" value="" style="endArrow=classic;html=1;rounded=0;entryX=0.033;entryY=0.578;entryDx=0;entryDy=0;entryPerimeter=0;" edge="1" parent="1" target="gGZaB5eez7U0gUSuwv3n-19">
          <mxGeometry width="50" height="50" relative="1" as="geometry">
            <mxPoint x="-540" y="1600" as="sourcePoint" />
            <mxPoint x="-150" y="1780" as="targetPoint" />
          </mxGeometry>
        </mxCell>
        <mxCell id="gGZaB5eez7U0gUSuwv3n-93" value="" style="endArrow=classic;html=1;rounded=0;entryX=0;entryY=0.429;entryDx=0;entryDy=0;entryPerimeter=0;" edge="1" parent="1" target="gGZaB5eez7U0gUSuwv3n-8">
          <mxGeometry width="50" height="50" relative="1" as="geometry">
            <mxPoint x="-540" y="1610" as="sourcePoint" />
            <mxPoint x="-150" y="1780" as="targetPoint" />
          </mxGeometry>
        </mxCell>
        <mxCell id="gGZaB5eez7U0gUSuwv3n-94" value="" style="endArrow=classic;html=1;rounded=0;entryX=0;entryY=0.5;entryDx=0;entryDy=0;" edge="1" parent="1" target="gGZaB5eez7U0gUSuwv3n-11">
          <mxGeometry width="50" height="50" relative="1" as="geometry">
            <mxPoint x="-540" y="1620" as="sourcePoint" />
            <mxPoint x="300" y="2160" as="targetPoint" />
          </mxGeometry>
        </mxCell>
        <mxCell id="gGZaB5eez7U0gUSuwv3n-95" value="" style="endArrow=classic;html=1;rounded=0;entryX=0;entryY=0.5;entryDx=0;entryDy=0;" edge="1" parent="1" target="gGZaB5eez7U0gUSuwv3n-21">
          <mxGeometry width="50" height="50" relative="1" as="geometry">
            <mxPoint x="-540" y="1630" as="sourcePoint" />
            <mxPoint x="300" y="2160" as="targetPoint" />
          </mxGeometry>
        </mxCell>
        <mxCell id="gGZaB5eez7U0gUSuwv3n-96" value="" style="endArrow=classic;html=1;rounded=0;entryX=0;entryY=0.5;entryDx=0;entryDy=0;" edge="1" parent="1" target="gGZaB5eez7U0gUSuwv3n-13">
          <mxGeometry width="50" height="50" relative="1" as="geometry">
            <mxPoint x="-540" y="1640" as="sourcePoint" />
            <mxPoint x="60" y="1980" as="targetPoint" />
          </mxGeometry>
        </mxCell>
        <mxCell id="gGZaB5eez7U0gUSuwv3n-97" value="" style="endArrow=classic;html=1;rounded=0;entryX=0;entryY=0.5;entryDx=0;entryDy=0;" edge="1" parent="1" target="gGZaB5eez7U0gUSuwv3n-20">
          <mxGeometry width="50" height="50" relative="1" as="geometry">
            <mxPoint x="-540" y="1650" as="sourcePoint" />
            <mxPoint x="60" y="1980" as="targetPoint" />
          </mxGeometry>
        </mxCell>
        <mxCell id="gGZaB5eez7U0gUSuwv3n-101" value="" style="endArrow=classic;html=1;rounded=0;entryX=0;entryY=0.5;entryDx=0;entryDy=0;" edge="1" parent="1" target="gGZaB5eez7U0gUSuwv3n-61">
          <mxGeometry width="50" height="50" relative="1" as="geometry">
            <mxPoint x="-540" y="1660" as="sourcePoint" />
            <mxPoint x="-90" y="2610" as="targetPoint" />
          </mxGeometry>
        </mxCell>
        <mxCell id="gGZaB5eez7U0gUSuwv3n-102" value="" style="endArrow=classic;html=1;rounded=0;entryX=0;entryY=0.5;entryDx=0;entryDy=0;" edge="1" parent="1" target="gGZaB5eez7U0gUSuwv3n-62">
          <mxGeometry width="50" height="50" relative="1" as="geometry">
            <mxPoint x="-540" y="1700" as="sourcePoint" />
            <mxPoint x="-90" y="2610" as="targetPoint" />
          </mxGeometry>
        </mxCell>
        <mxCell id="gGZaB5eez7U0gUSuwv3n-105" value="" style="endArrow=classic;html=1;rounded=0;entryX=0;entryY=0.5;entryDx=0;entryDy=0;" edge="1" parent="1" target="gGZaB5eez7U0gUSuwv3n-65">
          <mxGeometry width="50" height="50" relative="1" as="geometry">
            <mxPoint x="-550" y="1780" as="sourcePoint" />
            <mxPoint x="-90" y="3110" as="targetPoint" />
          </mxGeometry>
        </mxCell>
        <mxCell id="gGZaB5eez7U0gUSuwv3n-106" value="" style="endArrow=classic;html=1;rounded=0;entryX=0;entryY=0.5;entryDx=0;entryDy=0;" edge="1" parent="1" target="gGZaB5eez7U0gUSuwv3n-66">
          <mxGeometry width="50" height="50" relative="1" as="geometry">
            <mxPoint x="-550" y="1850" as="sourcePoint" />
            <mxPoint x="-60" y="3010" as="targetPoint" />
          </mxGeometry>
        </mxCell>
        <mxCell id="gGZaB5eez7U0gUSuwv3n-109" value="" style="endArrow=classic;html=1;rounded=0;entryX=0;entryY=0.5;entryDx=0;entryDy=0;" edge="1" parent="1" target="gGZaB5eez7U0gUSuwv3n-69">
          <mxGeometry width="50" height="50" relative="1" as="geometry">
            <mxPoint x="-580" y="1900" as="sourcePoint" />
            <mxPoint x="-60" y="3510" as="targetPoint" />
          </mxGeometry>
        </mxCell>
        <mxCell id="gGZaB5eez7U0gUSuwv3n-113" value="" style="endArrow=classic;html=1;rounded=0;entryX=0;entryY=0.5;entryDx=0;entryDy=0;" edge="1" parent="1" target="gGZaB5eez7U0gUSuwv3n-76">
          <mxGeometry width="50" height="50" relative="1" as="geometry">
            <mxPoint x="-630" y="1920" as="sourcePoint" />
            <mxPoint x="-60" y="3410" as="targetPoint" />
          </mxGeometry>
        </mxCell>
        <mxCell id="gGZaB5eez7U0gUSuwv3n-116" value="" style="endArrow=classic;html=1;rounded=0;entryX=0;entryY=0.5;entryDx=0;entryDy=0;" edge="1" parent="1" target="gGZaB5eez7U0gUSuwv3n-79">
          <mxGeometry width="50" height="50" relative="1" as="geometry">
            <mxPoint x="-680" y="1920" as="sourcePoint" />
            <mxPoint x="-60" y="4210" as="targetPoint" />
          </mxGeometry>
        </mxCell>
        <mxCell id="gGZaB5eez7U0gUSuwv3n-117" value="" style="endArrow=classic;html=1;rounded=0;entryX=0.017;entryY=0.344;entryDx=0;entryDy=0;entryPerimeter=0;" edge="1" parent="1" target="gGZaB5eez7U0gUSuwv3n-80">
          <mxGeometry width="50" height="50" relative="1" as="geometry">
            <mxPoint x="-700" y="1920" as="sourcePoint" />
            <mxPoint x="-60" y="4310" as="targetPoint" />
          </mxGeometry>
        </mxCell>
        <mxCell id="gGZaB5eez7U0gUSuwv3n-118" value="" style="endArrow=classic;html=1;rounded=0;entryX=0;entryY=0;entryDx=0;entryDy=0;" edge="1" parent="1" target="gGZaB5eez7U0gUSuwv3n-83">
          <mxGeometry width="50" height="50" relative="1" as="geometry">
            <mxPoint x="-720" y="1920" as="sourcePoint" />
            <mxPoint x="-60" y="4510" as="targetPoint" />
          </mxGeometry>
        </mxCell>
        <mxCell id="gGZaB5eez7U0gUSuwv3n-119" value="" style="endArrow=classic;html=1;rounded=0;entryX=0;entryY=0.5;entryDx=0;entryDy=0;" edge="1" parent="1" target="gGZaB5eez7U0gUSuwv3n-87">
          <mxGeometry width="50" height="50" relative="1" as="geometry">
            <mxPoint x="-730" y="1920" as="sourcePoint" />
            <mxPoint x="70" y="4470" as="targetPoint" />
          </mxGeometry>
        </mxCell>
        <mxCell id="gGZaB5eez7U0gUSuwv3n-121" value="" style="endArrow=classic;html=1;rounded=0;entryX=0;entryY=0;entryDx=0;entryDy=0;" edge="1" parent="1" target="gGZaB5eez7U0gUSuwv3n-15">
          <mxGeometry width="50" height="50" relative="1" as="geometry">
            <mxPoint x="-780" y="1920" as="sourcePoint" />
            <mxPoint x="-440" y="4110" as="targetPoint" />
          </mxGeometry>
        </mxCell>
      </root>
    </mxGraphModel>
  </diagram>
</mxfile>
